# xmcd
#
# Track frame offsets: 
#        150
#        14892
#        30567
#        42037
#        59175
#        76500
#        85755
#        99807
#        113885
#        125315
#        136030
#        149527
#
# Disc length: 2146 seconds
#
# Revision: 1
# Processed by: cddbd v1.5.2PL0 Copyright (c) Steve Scherf et al.
# Submitted via: ExactAudioCopy v0.99pb5
#
DISCID=9508600c
DTITLE=B.B.King - The Jungle
DYEAR=1900
DGENRE=Blues
TTITLE0=The Jungle
TTITLE1=5 Long Years
TTITLE2=Eyesight To The Blind
TTITLE3=Blue Shadows
TTITLE4=The Worst Thing In My Life
TTITLE5=Beautician Blues
TTITLE6=Ain't Nobody's Business
TTITLE7=Blues Stay Away
TTITLE8=I Stay In The Mood
TTITLE9=I Can Hear My Name
TTITLE10=Get 'em Bad
TTITLE11=It's A Mean World
EXTD=
EXTT0=
EXTT1=
EXTT2=
EXTT3=
EXTT4=
EXTT5=
EXTT6=
EXTT7=
EXTT8=
EXTT9=
EXTT10=
EXTT11=
PLAYORDER=
